/* XPM */
static char *_d46c5b1fdea46f3c77286e3ce7e11c8TAkcFrwV4I90xXCp[] = {
/* columns rows colors chars-per-pixel */
"32 32 7 1 ",
"  c #8EC840",
". c #81BB4D",
"X c #55B33B",
"o c #64BD37",
"O c #179131",
"+ c #7AB94A",
"@ c #A7D722",
/* pixels */
"                                ",
"       +      o              X  ",
"       +       o  o         @ . ",
"                 o       o  X.  ",
"    o                     o     ",
"   .o  o       +                ",
"   . X o       +                ",
"  o .X. X  X                    ",
" . X.X@.X.oO .   o   oO         ",
"  .X.OX.X.X..   . X @O .        ",
"                o.X X..   o     ",
"                           o  o ",
"                             o  ",
"                                ",
"                   X .          ",
"    X          X .X .           ",
"   . X        @O .O .  o   @O.  ",
"    .X    o   X .X .    X X.    ",
"    .O     o o .X  X .  X.      ",
"           o.o.@X.@O .          ",
"           X.X.XO.X .           ",
"                         ++     ",
"         o                      ",
"          o  o                  ",
"            o                   ",
"                 o   oO         ",
"      X         . X @O .     X  ",
"      O.        o.X X..      O. ",
"     o .                    o . ",
"     X.       o             X.  ",
"          +    o  o             ",
"                 o           +  "
};
