/* XPM */
static char *_13c58343e28470fd11b496cd6c429e47T8Wh33gI5PrEXdR[] = {
/* columns rows colors chars-per-pixel */
"32 32 13 1 ",
"  c #8EC840",
". c #C80805",
"X c #94070E",
"o c #FF3B1F",
"O c #DA1A12",
"+ c #57040D",
"@ c #FFA485",
"# c #4B692F",
"$ c #58882B",
"% c #64AF30",
"& c #55230D",
"* c #77391E",
"= c #B5E882",
/* pixels */
"                                ",
"                     $$$##      ",
"                   $$==%$%#     ",
"                  $%=$$$%%##    ",
"            *&   #####%%$$%%#   ",
"            *&  #     ###%$%#   ",
"             *&#         #%$#   ",
"       XXXXX+*&  ++++++   ###   ",
"     XXoooooo*&++@@@oOO++       ",
"    XoooOoOOOX*&XXoo@oO..+      ",
"   XooOOo@o.XX&&..XOooO..X+     ",
"   XoOoOo@@o...XXXOOOooO.X+     ",
"  XoOo@oOo@@@oooOOO.OOoO.XX+    ",
"  XoOo@@oOooo@@@oO.O.OoO.XX+    ",
"  XOo@@@@@OoOooOoOO..OOO.X.+    ",
"  XOo@@@@@ooOOooO.O.O.O..X.+    ",
"  XOOo@@@ooOOOoOOO..OO..XX.+    ",
"  XoOo@@oOOOOooO.O.OO..XXX.+    ",
"  XoOoooOOOOOoO.O..O..X.XX.+    ",
"  Xoo@@@oOOooO.O..O....XXX.+    ",
"   XOo@@ooooOOO..O...X.XX.+     ",
"   XOo@oOo.OO......X..XXX.+     ",
"    XOoooOO......X..X.XX.+      ",
"    XOOoO......X..XX.XXX.+      ",
"     +.OoO...X..XXX.XXXX+       ",
"     +..OO..X.XXX..XXX.X+       ",
"      +....X.XXXXXXXX.X+        ",
"      +..X..XXX.XXXX.X++        ",
"       +..XXXX+X...XX++         ",
"        ++XXXX++X.X+++          ",
"          ++++  +++++           ",
"                                "
};
