/* XPM */
static char *_193aa8693f2452ff168479515d49de57rBf4etAW8BNnBaY[] = {
/* columns rows colors chars-per-pixel */
"32 32 51 1 ",
"  c #8EC840",
". c #7CD9A3",
"X c #7BD9A5",
"o c #73D6AE",
"O c #77D8A9",
"+ c #78D8A9",
"@ c #72D6B0",
"# c #0EA3DA",
"$ c #15A8DF",
"% c #16AAE0",
"& c #18ACE2",
"* c #1DAEE3",
"= c #1CAFE5",
"- c #1FB2E7",
"; c #24B4E9",
": c #25B6EB",
"> c #28B8ED",
", c #28B9ED",
"< c #2ABAED",
"1 c #2CBCEF",
"2 c #2DBBF0",
"3 c #31C0F3",
"4 c #34C1F6",
"5 c #36C4F6",
"6 c #3BC6F4",
"7 c #39C5F7",
"8 c #38C5F8",
"9 c #3DC6F8",
"0 c #3FC7F8",
"q c #61D1C5",
"w c #60D1C7",
"e c #47C9E5",
"r c #44C9E9",
"t c #43C8F8",
"y c #49CAF9",
"u c #5BCFF9",
"i c #5ED1F9",
"p c #5FD1F9",
"a c #61D1F9",
"s c #6DD5FA",
"d c #70D6FA",
"f c #73D6FA",
"g c #73D7FA",
"h c #74D7FA",
"j c #7BD9FA",
"k c #92DFAF",
"l c #BBEBB1",
"z c #8EDFFB",
"x c #90DFFB",
"c c #9EE3FC",
"v c #BBEBFD",
/* pixels */
"            .qe888rqX           ",
"         o8888888888888@        ",
"       +88888888888888888O      ",
"      688888888888888888886     ",
"     88888888888888888888888    ",
"    8888888888888888888888888   ",
"   688888888888888888888888886  ",
"  O888888888888888888888888888+ ",
"  88888888888888888888888888888 ",
" @8888888888888888888888888888ak",
" 88888888888888888888888888888fh",
" 8888888888888888888888888888888",
"X8888888888888888888888888888888",
"q88888888880pppppt8ppp8888888ppp",
"r88888888880hhhhhy8hhf8888888hhh",
"8888888888hs8888ccccvvvcxhhzc888",
"8888888888888888888888888888885=",
"888888888888888888888888888883$#",
"e88888888888888888888888888882,;",
"q8888888888888888888888888888888",
".8888888888888888888888888888888",
" 8888888888888888888888888888888",
" 8888888888888888888888888888888",
" lchhh8888888888888888888888888@",
"  8hhhcjh8888888888888888888888 ",
"  +uuufpu888888888888888888888O ",
"   *&,888888888888888888888886  ",
"    ##%1888888888888888888888   ",
"     -;,48888888888888888888    ",
"      688888888888888888886     ",
"       O88888888888888888+      ",
"         @888888hhhhhhho        "
};
