/* XPM */
static char *b177b845f26d4d51b0f8e70e90a527c1YKWFXsCcDVx5rHFe[] = {
/* columns rows colors chars-per-pixel */
"32 32 9 1 ",
"  c #8EC840",
". c #DFF275",
"X c #EDFF86",
"o c #4C5918",
"O c white",
"+ c #C3E04B",
"@ c #313638",
"# c #A5BF35",
"$ c #F57D4A",
/* pixels */
"                                ",
"                                ",
"                                ",
"                                ",
"     ooooooo        ooooooo     ",
"    oOOOOOO+o      o+OOOOOOo    ",
"   oOO@@@OOO+oooooo+OOO@@@OOo   ",
"   oO@@@@@OO++++++++OO@@@@@Oo   ",
"   oO@@@@@OO++o++o++OO@@@@@Oo   ",
"  oOO@@@@@OO++++++++OO@@@@@OOo  ",
"  oOOO@@@OOO++++++++OOO@@@OOOo  ",
"  o+OOOOOOOXXooooooXXOOOOOOO+o  ",
" o+$$OOOOOXXXXXXXXXXXXOOOOO$$+o ",
" o++++XXXXXXXXXXXXXXXXXXXX++++o ",
" o+++XXXXXXXXXXXXXXXXXXXXXX+++o ",
" o++.XXXXXXXXXXXXXXXXXXXXXX.++o ",
" o++..XXXXXXXXXXXXXXXXXXXX..++o ",
"  o+...XXXXXXXXXXXXXXXXXX...+o  ",
"   o+...XXXXXXXXXXXXXXXX...+o   ",
"    o+....XXXXXXXXXXXX....+o    ",
"     oo......XXXXXX......oo     ",
"       oo..............oo       ",
"         o+..........+o         ",
"     oooo o+..XXXX..+o oooo     ",
"    o++++oo++.XXXX.++oo++++o    ",
"   o++++++o+++XXXX+++o++++++o   ",
"   o+++oo+o+++XXXX+++o+oo+++o   ",
"    o++++oo+++oXXo+++oo++++o    ",
"     o+++++o+++oo+++o+++++o     ",
"    o+++++ooo++oo++ooo+++++o    ",
"   o+#+#+o+#+#+oo+#+#+o+#+#+o   ",
"    ooooooooooo  ooooooooooo    "
};
