/* XPM */
static char *e4e9c132d00a40aad1d2ffd661443c10yWUYEao9AqaR8Cek[] = {
/* columns rows colors chars-per-pixel */
"16 16 209 2 ",
"   c black",
".  c #020101",
"X  c #020201",
"o  c #010204",
"O  c #040509",
"+  c #0C0E19",
"@  c black",
"#  c #0B0704",
"$  c #342014",
"%  c #332114",
"&  c None",
"*  c #24180F",
"=  c #1D120B",
"-  c #110B06",
";  c #050302",
":  c black",
">  c black",
",  c #0A0604",
"<  c #190F0A",
"1  c #1F140C",
"2  c #060402",
"3  c black",
"4  c black",
"5  c #0A0604",
"6  c #23150D",
"7  c #412A1A",
"8  c #362315",
"9  c #130B06",
"0  c #040201",
"q  c black",
"w  c #130C07",
"e  c #1F150C",
"r  c #050402",
"t  c black",
"y  c black",
"u  c #170F09",
"i  c #24190F",
"p  c #060403",
"a  c #170F09",
"s  c #25180F",
"d  c #070403",
"f  c #130C07",
"g  c #342215",
"h  c #170F09",
"j  c #060402",
"k  c #080403",
"l  c #22140B",
"z  c #44392E",
"x  c #0E0B09",
"c  c black",
"v  c black",
"b  c #261912",
"n  c #524134",
"m  c #0F0C09",
"M  c black",
"N  c black",
"B  c #160E0B",
"V  c #533D2F",
"C  c #725745",
"Z  c #2C1F18",
"A  c #0A0705",
"S  c black",
"D  c #1A100A",
"F  c #312116",
"G  c #090604",
"H  c black",
"J  c #110A05",
"K  c #20130B",
"L  c #050301",
"P  c black",
"I  c black",
"U  c #0F0E0C",
"Y  c #2B2219",
"T  c #38291C",
"R  c #1B1612",
"E  c #090907",
"W  c black",
"Q  c black",
"!  c #342F27",
"~  c #8C7D66",
"^  c #52493C",
"/  c #110F0C",
"(  c black",
")  c #322C24",
"_  c #4F473B",
"`  c #100E0C",
"'  c #10121D",
"]  c #070916",
"[  c #0D0A0B",
"{  c #232933",
"}  c #142D56",
"|  c #0E2042",
" . c #23467E",
".. c #141416",
"X. c #090A12",
"o. c #0A0C18",
"O. c #0D0F1A",
"+. c #2E1F13",
"@. c #482F1D",
"#. c #352315",
"$. c #533822",
"%. c #503520",
"&. c #4D331F",
"*. c #543722",
"=. c #513620",
"-. c #4A301D",
";. c #523721",
":. c #573B24",
">. c #543721",
",. c #523520",
"<. c #573A23",
"1. c #593B23",
"2. c #583B24",
"3. c #3C2717",
"4. c #573923",
"5. c #553822",
"6. c #4D321E",
"7. c #452B1A",
"8. c #432A19",
"9. c #563922",
"0. c #583B23",
"q. c #50351F",
"w. c #432D1B",
"e. c #5B3D25",
"r. c #4E331E",
"t. c #543623",
"y. c #714D37",
"u. c #77523B",
"i. c #7D573E",
"p. c #67452F",
"a. c #523621",
"s. c #442E1C",
"d. c #543821",
"f. c #583A25",
"g. c #845C43",
"h. c #A67659",
"j. c #AA795B",
"k. c #AC7B5D",
"l. c #966A4F",
"z. c #64442E",
"x. c #3B2616",
"c. c #62422A",
"v. c #6B4834",
"b. c #7D5D49",
"n. c #AE8E72",
"m. c #BE9C7E",
"M. c #8F6F59",
"N. c #876049",
"B. c #724E37",
"V. c #6A4F39",
"C. c #7D614C",
"Z. c #6A5646",
"A. c #AE9A7F",
"S. c #C9B395",
"D. c #7A6755",
"F. c #725A49",
"G. c #A0866C",
"H. c #80644D",
"J. c #AB9277",
"K. c #A38F77",
"L. c #BAA689",
"P. c #C4AF91",
"I. c #A8947A",
"U. c #A69279",
"Y. c #B99A7D",
"T. c #A18268",
"R. c #C1A98B",
"E. c #C0AB8D",
"W. c #C0AA8C",
"Q. c #C1AC8E",
"!. c #BB9D7F",
"~. c #644734",
"^. c #A67F64",
"/. c #B08A6F",
"(. c #AE896F",
"). c #B0896D",
"_. c #8B654C",
"`. c #402817",
"'. c #6F5649",
"]. c #857A81",
"[. c #8A838F",
"{. c #7E6A65",
"}. c #5A3D29",
"|. c #4F3520",
" X c #604F48",
".X c #777F95",
"XX c #8D9AB4",
"oX c #767072",
"OX c #5E432D",
"+X c #978065",
"@X c #565765",
"#X c #3D65A3",
"$X c #4172B9",
"%X c #465A7D",
"&X c #7D6C5C",
"*X c #A79277",
"=X c #8C7E6B",
"-X c #8C9199",
";X c #3F69A7",
":X c #21519A",
">X c #204D93",
",X c #275BA5",
"<X c #697F9F",
"1X c #A69B8B",
"2X c #3A5781",
"3X c #305693",
"4X c #3C6198",
"5X c #2E3C52",
"6X c white",
/* pixels */
"    @ # +.@.$ % & * = - ; :     ",
"  > , < #.$.%.&.*.=.-.1 2 3     ",
"4 5 6 7 ;.:.>.,.<.1.2.8 9 0 :   ",
"q w 3.4.5.6.7.8.6.9.0.q.e r t   ",
"y u w.e.r.t.y.u.i.p.a.<.i p 3   ",
"y a s.d.f.g.h.j.k.l.z.>.s d 3   ",
"y f x.c.v.b.n.m.M.N.B.g h j :   ",
"> k l V.C.Z.A.S.D.F.G.z x c     ",
". v b H.J.K.L.P.I.U.Y.n m M     ",
"  N B V T.R.E.W.Q.!.C Z A :     ",
"  . S D ~.^./.(.)._.F G c X     ",
"    H J `.'.].[.{.}.K L P       ",
"  I U Y |. X.XXXoXOXT R E W     ",
"  Q ! ~ +X@X#X$X%X&X*X^ / 3     ",
"o ( ) =X-X;X:X>X,X<X1X_ ` 3 O + ",
"' ] [ { 2X3X} |  .4X5X..X.o.O.+ "
};
