/* XPM */
static char *_690132fcc7f41b9ff6e4a314e9ab9adjbTgnTIykMUHmFaI[] = {
/* columns rows colors chars-per-pixel */
"32 32 6 1 ",
"  c #4F2B13",
". c #6A3919",
"X c #88502B",
"o c #985930",
"O c #B4774B",
"+ c #C69165",
/* pixels */
" +oOo++o OXooOoX OXX...X +OooOO+",
" +Oo++Oo OXXoOoX oOXX.X. +OoOOo+",
" +Oo++Oo OXooOXX oooXXX. O+oOOo+",
" +Oo++Oo OOooXOX oooXXX. OOO+OoO",
" +Oo++Oo.OOooooX ooXXoXX OOOOOoo",
".+Oo++Oo. ...    oOXXo.X. ...   ",
".+Oo+OOo O+++O++ oOXXooX.XO+++o+",
".+Oo+oOo.+O++O+o oOoXooX.XO+++Oo",
".O++ooOo.+OO++o+ oOoXooX.XoO++Oo",
".+O+ooOo ++O++o+ oOoXoXo.XoO+o+O",
".+O+o+Oo +OO++o+.oOoXoXo.oXo+o+O",
".+O+o+Oo ++O++o+.oOOXXXo.oXoo++O",
".+O+oO+o ++Ooo++.ooOXXOo.XOoo+++",
".+O+oOoo ++Oo++O.ooOXXoO.oOooO++",
".++OoOoo.++Oo++O.ooooXoO.oOooo++",
".      ..++Oo++O.  ......oO.ooO+",
" ++O+oo+.++OoO+O.+OOoXOO.oO.oo++",
" +O++o++.+OOoO+O.O+OOoXO.oOo.o++",
" +O+o++O.+OOoO+o.O+OOOXo.oOooo+O",
".+O+o++O.+O++OOo O+OOOXo.XoOoo+O",
".+O++++O.++O++Oo O+OOoOo.XoOooO+",
".+O+++OO +++++Oo OoOOOOo.XXooXX+",
".+O+++OO  .      O+oOOOo  ..  . ",
".+O+++OO.oooOOoo O+oOOoO o+OOOOO",
".+++++Oo.oooOOoo OOoOOoO +OOOO+O",
".++++OOo.OoooOoo.OOoOOoO OoOOO+O",
".+++oOOo.OoooOoo OOoOOo+ OooOO+o",
".++oOOOo.OXooOoo OooOO+O.OOoOO+O",
".++oOO+X.OXooOoo OooOO+O.OOoOOo+",
" o+OO+XX OXooOoo OoOO++o.OOoOOO+",
" ooOOoXX OXXooOo OOOO+oo OOoOOO+",
"  ...... OXXoooo ...     OOooOO+"
};
